<svg width="500" height="300" viewBox="0 0 500 300" fill="none" xmlns="http://www.w3.org/2000/svg">
<path d="M93.457 269.547C68.0209 254.607 59.2451 224.776 41.2135 194.749C23.1819 164.721 -4.17395 134.546 4.73901 112.16C13.6519 89.7754 58.6966 75.23 97.7764 54.6199C136.925 34.0098 170.108 7.38434 204.663 6.05307C239.149 4.7218 275.007 28.6847 311.344 49.9851C347.613 71.2361 384.362 89.7753 404.999 116.549C425.635 143.322 430.229 178.28 419.122 211.71C408.015 245.14 381.208 276.942 342.608 288.825C304.008 300.659 253.684 292.573 207.406 288.48C161.127 284.437 118.962 284.437 93.457 269.547Z" fill="#7BDDBC" fill-opacity="0.35"/>
<path d="M249.662 181L248.312 147.75L237.912 149.1V141.5L268.862 144.35V145.05L257.512 146.55L256.162 181H249.662ZM295.972 167.1C295.972 169.3 295.522 171.3 294.622 173.1C293.722 174.867 292.539 176.383 291.072 177.65C289.606 178.917 288.022 179.9 286.322 180.6C284.622 181.267 282.972 181.6 281.372 181.6C279.772 181.6 278.122 181.267 276.422 180.6C274.722 179.9 273.122 178.917 271.622 177.65C270.156 176.383 268.956 174.867 268.022 173.1C267.122 171.3 266.672 169.3 266.672 167.1C266.672 164.9 267.122 162.9 268.022 161.1C268.956 159.3 270.156 157.767 271.622 156.5C273.122 155.2 274.722 154.217 276.422 153.55C278.122 152.85 279.772 152.5 281.372 152.5C282.972 152.5 284.622 152.85 286.322 153.55C288.022 154.217 289.606 155.2 291.072 156.5C292.539 157.767 293.722 159.3 294.622 161.1C295.522 162.9 295.972 164.9 295.972 167.1ZM282.872 178C284.639 178 285.989 177.367 286.922 176.1C287.856 174.8 288.322 172.467 288.322 169.1C288.322 166.1 287.856 163.65 286.922 161.75C286.022 159.85 284.922 158.467 283.622 157.6C282.322 156.7 281.072 156.25 279.872 156.25C278.706 156.25 277.706 156.517 276.872 157.05C276.039 157.583 275.406 158.5 274.972 159.8C274.539 161.067 274.322 162.833 274.322 165.1C274.322 167.133 274.589 168.95 275.122 170.55C275.689 172.15 276.406 173.517 277.272 174.65C278.139 175.75 279.056 176.583 280.022 177.15C281.022 177.717 281.972 178 282.872 178ZM331.828 177C330.395 178.333 329.045 179.45 327.778 180.35C326.511 181.217 325.395 181.65 324.428 181.65C323.595 181.65 322.895 181.25 322.328 180.45C321.795 179.617 321.445 178.2 321.278 176.2C320.611 177.233 319.711 178.167 318.578 179C317.445 179.8 316.228 180.433 314.928 180.9C313.628 181.367 312.395 181.6 311.228 181.6C309.195 181.6 307.611 181.233 306.478 180.5C305.345 179.767 304.528 178.7 304.028 177.3C303.528 175.867 303.195 174.083 303.028 171.95L301.728 153.15H310.278L309.478 171.55V172.15C309.478 173.617 309.778 174.683 310.378 175.35C311.011 176.017 312.128 176.35 313.728 176.35C314.661 176.35 315.811 176.1 317.178 175.6C318.545 175.1 319.845 174.267 321.078 173.1L319.728 153.15H328.228L327.528 172.35V173.7C327.528 174.9 327.628 175.767 327.828 176.3C328.061 176.8 328.578 177.05 329.378 177.05C329.645 177.05 329.961 177.017 330.328 176.95C330.728 176.883 331.161 176.8 331.628 176.7L331.828 177ZM338.721 181L336.921 153.15H345.721L345.571 158.1C346.337 157.1 347.271 156.183 348.371 155.35C349.471 154.483 350.654 153.8 351.921 153.3C353.221 152.767 354.521 152.5 355.821 152.5V159.85C355.154 159.483 354.404 159.217 353.571 159.05C352.771 158.85 351.937 158.75 351.071 158.75C350.037 158.75 349.021 158.883 348.021 159.15C347.021 159.383 346.187 159.733 345.521 160.2L344.871 181H338.721ZM380.03 162.55C379.164 161.683 378.064 160.817 376.73 159.95C375.397 159.083 374.03 158.333 372.63 157.7C371.264 157.033 370.064 156.617 369.03 156.45C368.797 156.383 368.564 156.35 368.33 156.35C368.097 156.35 367.864 156.35 367.63 156.35C366.597 156.35 365.747 156.533 365.08 156.9C364.414 157.267 364.08 157.733 364.08 158.3C364.08 158.833 364.414 159.367 365.08 159.9C365.747 160.4 366.747 160.983 368.08 161.65C369.447 162.317 370.947 163.067 372.58 163.9C374.214 164.7 375.83 165.583 377.43 166.55C379.03 167.517 380.43 168.533 381.63 169.6C382.83 170.667 383.63 171.8 384.03 173C384.33 173.833 384.48 174.617 384.48 175.35C384.48 177.283 383.497 178.817 381.53 179.95C379.564 181.05 376.647 181.6 372.78 181.6C369.747 181.6 366.93 180.767 364.33 179.1C361.73 177.433 359.58 175.283 357.88 172.65L358.28 172.15C360.347 173.75 362.547 175.017 364.88 175.95C367.214 176.85 369.497 177.3 371.73 177.3C373.23 177.3 374.397 177.1 375.23 176.7C376.097 176.3 376.53 175.8 376.53 175.2C376.53 175.067 376.497 174.9 376.43 174.7C376.097 173.767 375.297 172.867 374.03 172C372.764 171.1 371.264 170.167 369.53 169.2C367.83 168.2 366.08 167.1 364.28 165.9C362.514 164.667 360.93 163.267 359.53 161.7C358.764 160.767 358.38 159.817 358.38 158.85C358.38 157.783 358.764 156.767 359.53 155.8C360.297 154.833 361.38 154.05 362.78 153.45C364.18 152.817 365.814 152.5 367.68 152.5C369.947 152.5 372.097 152.683 374.13 153.05C376.164 153.417 377.98 153.9 379.58 154.5C381.214 155.067 382.497 155.7 383.43 156.4L380.03 162.55Z" fill="#28262C"/>
<path d="M150.955 234.128C151.436 235.253 152.878 236.033 152.718 237.47C151.396 237.158 150.314 236.752 149.754 235.721C149.233 234.753 148.512 233.847 147.951 232.91C147.03 231.349 146.549 229.6 145.308 228.132C144.306 226.945 144.186 225.664 144.026 224.321C143.986 224.071 143.906 223.728 144.306 223.665C144.667 223.603 145.107 224.009 145.588 224.602C146.549 225.852 147.551 227.913 147.831 228.35C149.033 230.255 150.114 232.161 150.955 234.128ZM329 234.503C328.76 234.066 328.559 233.597 328.439 233.129C326.156 231.786 323.913 230.443 321.39 229.35C320.188 228.819 319.066 228.194 318.025 227.507C318.025 227.382 317.985 227.257 317.825 227.132C316.623 226.07 315.381 225.04 314.18 223.978C313.298 222.822 312.057 221.854 310.695 221.073C308.532 219.824 306.529 218.512 304.727 217.013C302.363 215.045 299.56 214.233 296.155 214.514C294.312 214.67 292.95 213.983 292.189 212.765C291.108 211.047 289.145 209.767 287.183 208.705C285.38 207.737 282.696 206.831 281.455 205.426C280.934 204.863 280.213 204.395 279.812 203.739C278.571 201.803 276.368 200.928 273.924 200.147C272.883 199.835 272.122 199.21 271.481 198.554C270.76 197.836 269.999 197.243 269.198 196.556C268.437 195.931 268.196 194.963 267.475 194.244C266.634 193.401 265.593 192.683 264.511 192.027C262.789 190.965 261.067 189.903 259.625 188.622C258.583 187.685 257.662 187.092 256.14 187.81C254.898 188.404 253.697 189.06 252.615 189.809C252.134 190.153 251.654 190.496 251.253 190.871C250.893 191.215 250.612 191.902 250.172 192.183C247.969 193.62 245.285 194.619 243.082 196.056C242.361 196.524 241.52 196.368 241.039 195.681C239.597 193.682 237.554 192.089 235.552 190.465C235.111 190.09 234.59 189.778 234.07 189.528C232.387 188.779 231.065 187.717 228.902 187.935C228.822 187.873 228.782 187.842 228.702 187.779C225.978 185.874 223.695 183.656 221.212 181.595C220.611 181.095 220.211 180.44 219.65 179.909C218.648 178.94 217.206 178.472 215.804 177.941C213.161 177.004 210.838 175.598 208.514 174.255C205.07 172.288 202.026 170.07 199.983 167.072C199.021 165.698 197.619 165.667 196.057 166.853C193.334 168.915 190.85 171.163 188.487 173.475C187.085 174.849 185.483 176.036 183.68 177.066C183.28 177.285 182.919 177.535 182.519 177.785C180.436 178.597 178.673 179.752 177.272 181.252C177.191 181.345 177.151 181.439 177.151 181.533C175.429 182.72 173.867 183.906 172.585 185.343C170.502 187.654 168.379 189.965 166.457 192.339C164.414 194.869 161.45 196.712 158.806 198.773C157.044 200.147 155.041 201.397 152.838 202.396C151.516 202.989 150.274 202.896 148.993 202.177C148.432 201.865 147.831 201.521 147.23 201.24C147.23 201.084 147.15 200.928 146.91 200.803C145.147 199.866 143.105 198.929 141.462 197.805C139.74 196.587 138.018 195.369 136.295 194.151C135.134 193.339 133.612 191.714 131.809 191.902C131.088 191.996 129.446 192.37 129.085 192.933C128.765 193.432 128.605 193.963 128.284 194.463C127.563 195.587 126.602 196.556 125.32 197.274C122.316 199.054 119.913 201.365 117.189 203.364C114.225 205.519 110.58 206.862 107.335 208.767C106.614 208.892 106.134 209.579 105.373 209.673C103.851 209.861 102.409 210.423 101.087 211.11C98.8838 212.297 98.3631 214.421 96.5206 215.826C95.9998 216.201 95.5592 216.638 94.9985 216.982C94.5579 217.263 93.917 217.45 93.5164 217.762C92.5952 218.356 91.6739 218.918 90.7126 219.48C88.9101 220.573 87.1076 221.385 85.1049 222.197C81.3798 223.759 77.935 225.508 75.732 228.444C74.3301 230.318 72.5276 231.973 70.9654 233.753C69.6837 235.19 68.6022 236.752 67 238.126C67.3204 238.251 67.4406 238.345 67.5207 238.313C70.4447 237.47 73.4489 237.751 76.4129 237.876C79.0165 237.97 80.859 236.97 82.8217 235.721C84.5441 234.628 86.7471 233.66 88.6698 232.848C89.4308 232.504 90.4723 232.348 91.1932 231.973C91.8742 231.63 92.2747 230.943 92.9156 230.537C94.3175 229.662 95.1987 228.506 96.08 227.288C96.4805 226.695 97.3217 226.414 98.2029 226.289C100.206 226.039 101.487 225.102 102.369 223.697C103.37 222.135 105.052 220.979 106.815 219.949C107.536 219.511 108.337 218.856 109.178 218.637C110.38 218.325 111.942 218.45 113.183 218.293C116.388 217.919 119.072 216.451 121.355 214.702C123.798 212.796 126.161 210.891 127.603 208.33C127.884 207.799 128.845 207.175 129.686 206.675C131.889 205.426 133.972 204.051 133.531 201.521C133.411 200.803 133.692 200.085 133.892 199.366C134.493 199.242 135.013 198.96 135.134 198.429C135.134 198.398 135.134 198.367 135.134 198.336C135.574 197.899 135.895 198.055 137.056 198.648C137.096 198.679 137.136 198.679 137.176 198.711C137.978 199.366 138.899 199.897 139.86 200.366C143.505 202.771 147.23 205.051 151.676 206.581C154.28 207.487 156.082 209.049 156.483 211.391C156.683 212.672 157.564 213.796 158.366 214.889C158.806 215.514 158.886 216.825 159.968 216.982C160.248 217.013 160.609 217.044 160.809 217.2C160.969 217.325 161.009 217.513 161.049 217.7C161.41 219.012 162.772 219.636 164.053 220.417C168.139 222.885 171.023 226.882 175.83 228.569C178.233 229.412 180.236 230.786 182.238 232.129C185.723 234.441 189.368 237.095 193.614 238.501C194.215 238.688 195.056 239.219 195.497 238.657C195.897 238.157 195.336 237.533 194.776 237.095C193.814 236.377 192.853 235.659 191.852 235.003C190.97 234.441 190.61 233.691 190.329 232.848C190.009 231.848 190.41 231.255 191.251 230.474C192.292 229.537 192.693 228.444 193.173 227.257C193.454 226.508 194.015 225.852 194.896 225.414C195.857 224.946 197.019 224.915 197.94 224.415C200.183 223.197 201.425 220.292 201.585 218.262C201.745 216.138 202.026 214.015 202.146 211.891C202.186 211.297 202.466 210.673 203.187 210.392C203.668 210.173 204.269 210.11 204.789 210.017C206.672 209.642 205.951 208.268 206.271 207.237C206.111 207.706 207.353 207.3 207.433 207.237C208.394 206.8 209.235 205.8 210.437 205.738C211.559 205.675 212.28 206.581 212.88 207.206C213.922 208.299 215.043 209.33 216.485 210.142C219.57 211.922 221.933 214.171 222.934 217.107C223.135 217.669 223.655 218.637 223.976 219.168C225.257 221.229 226.259 223.384 227.701 225.383C227.901 225.695 229.704 228.007 230.705 228.069C231.025 228.1 231.226 228.038 231.226 227.726C231.146 226.57 229.984 225.883 229.263 224.977C229.103 224.759 228.902 223.915 228.582 223.166C227.46 220.355 226.099 217.637 224.296 215.014C223.815 214.327 223.735 213.39 223.215 212.64C222.293 211.297 220.691 210.36 219.369 209.298C216.766 207.175 214.603 204.988 215.164 201.803C215.684 201.678 215.925 202.052 216.285 202.271C218.729 203.614 221.292 204.895 224.016 205.863C225.298 206.3 226.419 206.612 227.581 207.268C229.263 208.237 230.585 209.486 232.227 210.485C233.749 211.391 235.351 212.234 236.353 213.546C237.234 214.733 238.716 215.576 239.878 216.576C240.919 217.481 241.279 218.668 241.84 219.761C242.121 220.324 242.441 220.854 242.962 221.323C244.404 222.697 244.284 224.571 245.085 226.164C245.525 227.07 245.605 228.194 246.407 229.006C247.208 229.818 247.889 230.755 248.409 231.692C248.93 232.629 249.13 233.785 250.172 234.441C250.612 234.722 251.093 234.972 251.534 235.253C251.814 235.846 252.335 236.408 252.935 237.002C253.216 234.659 251.734 232.567 250.452 230.568C248.73 227.882 248.449 224.915 247.808 221.979C248.65 221.979 249.21 222.291 249.691 222.603C252.535 224.29 255.619 225.789 257.462 228.288C257.862 228.819 258.583 229.1 259.264 229.318C260.866 229.818 262.148 230.537 263.069 231.692C263.67 232.442 264.431 232.848 265.433 233.129C266.634 233.472 267.756 233.972 268.958 234.347C270.44 234.784 271.922 234.815 273.364 234.284C273.844 234.128 273.684 233.535 273.003 233.316C271.922 232.941 270.88 232.504 269.759 232.223C268.196 231.817 266.915 231.099 265.993 230.162C264.551 228.631 262.629 227.601 260.706 226.539C258.503 225.321 256.661 223.79 255.539 221.885C254.658 220.417 253.296 219.668 251.453 219.199C250.252 218.887 249.01 218.606 247.969 218.075C243.242 214.764 239.597 210.61 234.67 207.424C231.987 205.675 229.143 203.895 225.778 202.74C223.175 201.865 220.531 200.991 218.729 199.117C218.688 199.085 218.648 199.054 218.608 199.023C218.568 198.992 218.568 198.96 218.528 198.929C218.288 198.679 218.008 198.461 217.727 198.305C217.687 198.273 217.687 198.273 217.647 198.242C216.606 197.43 215.364 196.774 213.922 196.431C212.4 196.025 210.077 196.962 209.155 198.305C209.075 198.429 209.075 198.617 208.955 198.711C207.193 199.991 206.031 201.646 204.429 203.052C202.546 204.676 200.263 204.957 197.9 205.957C196.178 206.706 195.216 208.33 193.894 209.455C192.292 210.86 190.85 212.359 190.209 214.202C190.009 214.858 189.408 215.358 188.767 215.795C187.606 216.669 186.284 217.325 184.842 217.887C184.321 218.075 183.76 218.293 183.44 218.637C181.838 220.23 179.314 220.698 177.312 221.823C176.47 222.291 175.789 222.229 174.988 221.542C173.867 220.573 172.385 219.917 171.744 218.574C171.383 217.856 171.183 217.45 171.383 217.2C172.745 216.982 174.027 216.669 175.309 216.201C175.87 216.013 175.709 215.514 175.309 215.295C177.191 212.828 179.034 210.516 179.755 207.83C180.476 205.144 180.276 202.334 181.157 199.648C181.597 198.273 182.238 197.055 183.841 196.118C185.323 195.275 186.124 193.87 187.205 192.714C187.566 192.339 187.566 191.839 187.526 191.34C187.325 189.185 187.606 186.655 190.009 185.281C191.531 184.375 192.733 183.157 193.414 181.751C194.135 180.283 193.934 178.722 195.336 177.472C196.618 176.348 197.66 175.13 198.02 173.631C198.18 173.006 198.781 172.569 199.382 172.288C200.704 171.663 203.147 174.287 203.988 174.849C206.752 176.723 209.796 178.409 212.8 180.034C213.962 180.658 215.284 181.158 216.525 181.72C218.328 182.501 219.409 184.063 220.731 185.249C221.332 185.812 221.292 186.218 220.291 186.186C217.687 186.093 215.604 187.217 213.321 187.967C212.68 188.185 212.039 188.435 211.759 189.185C213.081 189.06 214.282 188.997 215.484 188.841C216.926 188.622 218.288 189.028 219.65 189.341C221.132 189.684 222.614 189.684 224.136 189.809C227.38 190.09 231.105 190.684 233.309 192.651C235.552 194.65 237.474 196.837 239.237 199.085C240.759 200.991 242.401 202.865 244.003 204.707C244.244 204.988 244.604 205.457 245.085 205.269C245.565 205.082 245.285 204.614 245.205 204.27C245.125 203.864 244.965 203.489 245.045 202.989C247.488 203.395 249.531 204.332 251.093 205.675C254.938 209.017 258.383 212.609 261.908 216.138C262.789 217.013 263.19 217.95 263.59 218.918C264.031 219.949 264.592 220.917 265.553 221.729C266.995 222.947 267.756 224.477 268.917 225.82C269.198 226.133 269.358 226.476 269.999 226.476C270.279 225.977 270.199 225.321 269.919 225.008C268.557 223.478 268.557 221.635 267.916 219.949C267.676 219.293 267.596 218.887 267.796 218.606C268.437 218.668 269.078 218.699 269.759 218.762C271.922 219.574 273.964 220.573 276.248 221.229C277.85 221.666 279.252 222.322 280.413 223.291C281.775 224.415 283.377 225.258 285.02 226.039C285.46 226.258 285.58 226.882 285.821 227.32C286.582 228.725 286.862 230.224 287.183 231.723C287.383 232.66 287.703 233.566 288.785 234.597C288.424 232.317 287.823 230.287 287.783 228.069C289.946 229.006 292.229 229.412 293.671 231.036C294.352 231.786 295.634 232.129 296.636 232.629C297.957 233.254 299.359 233.722 300.721 234.16C302.243 234.659 303.845 234.972 305.648 235.003C305.408 234.316 304.647 234.128 304.086 233.878C299.479 232.004 295.514 229.475 291.829 226.632C290.707 225.758 289.666 224.79 288.584 223.853C286.582 222.135 284.739 220.292 282.256 218.918C280.093 217.7 278.611 215.951 276.808 214.452C274.605 212.609 271.841 211.266 269.518 209.548C266.674 207.424 263.27 205.957 259.945 204.332C258.063 203.395 257.582 201.709 257.021 200.147C256.54 198.836 256.54 197.493 257.061 196.212C257.622 194.838 257.782 193.464 257.782 192.058C257.782 191.621 257.822 191.215 258.303 191.027C258.784 190.84 259.144 191.246 259.545 191.465C262.509 193.089 264.151 195.556 266.234 197.774C266.955 198.554 267.636 199.335 267.796 200.335C267.916 200.959 268.517 201.334 269.238 201.615C270.64 202.177 272.002 202.74 273.404 203.271C274.765 203.801 275.847 204.489 276.648 205.519C278.691 208.361 281.415 210.579 285.54 211.766C287.503 212.328 289.145 213.64 290.507 214.983C290.908 215.389 291.068 215.92 290.547 216.295C289.746 216.857 289.746 217.762 288.945 218.325C288.424 218.668 288.825 219.23 289.466 219.137C289.906 219.074 290.427 218.543 290.747 218.325C292.229 217.325 293.311 216.825 295.314 216.763C297.236 216.732 298.919 217.2 300.681 217.794C305.488 219.48 308.772 222.479 312.177 225.414C313.859 226.882 315.461 228.475 317.865 229.35C318.626 229.631 318.946 230.162 319.146 230.755C319.507 231.723 320.268 232.504 321.069 233.316C321.35 233.223 321.67 233.16 321.99 233.098C321.79 232.254 320.989 231.598 320.949 230.786C321.51 230.755 321.83 231.067 322.151 231.255C324.474 232.473 326.557 233.691 329 234.503ZM175.509 235.253C175.149 234.597 174.748 234.003 173.867 233.472C173.506 232.91 172.906 232.41 172.024 232.004C168.459 230.287 164.694 228.881 161.089 227.257C159.727 226.632 158.686 225.664 157.645 224.759C156.523 223.79 155.321 223.134 153.919 222.447C150.274 220.636 146.669 218.574 143.505 216.263C143.385 215.607 142.624 215.108 141.823 214.983C141.783 214.983 141.783 214.983 141.743 214.983C141.022 213.89 139.66 212.953 138.258 212.796C137.337 212.703 136.576 213.046 135.935 213.484C134.413 214.514 132.931 215.67 131.328 216.638C129.686 217.638 127.924 218.793 126.121 219.574C124.399 220.323 122.236 220.105 120.393 220.074C118.831 220.042 117.63 220.48 116.588 221.354C114.986 222.697 112.663 223.416 111.181 224.79C111.061 224.915 109.659 224.915 109.378 224.946C108.737 225.071 108.096 225.227 107.536 225.477C106.374 225.945 105.533 226.664 104.532 227.32C102.128 228.881 99.8852 230.599 97.6421 232.317C97.1614 232.692 96.6007 232.598 96.2802 232.879C93.8769 234.784 90.7126 236.252 89.6311 239.032C89.5109 239.344 89.1504 239.594 89.3908 240C91.3535 238.657 93.3562 237.345 95.2789 235.971C96.08 235.409 97.3217 235.315 98.1228 234.753C98.4032 234.566 100.045 233.191 100.486 233.753C100.806 234.16 100.646 234.878 100.206 235.44C99.2443 236.627 98.3631 237.814 97.2015 238.907C99.5247 238.126 101.047 236.752 102.288 235.128C103.61 233.347 105.293 231.848 107.576 230.724C110.42 229.318 113.584 228.413 116.428 227.038C117.269 226.632 117.95 226.039 118.871 225.758C119.352 225.82 120.033 225.914 120.514 225.82C120.634 225.883 120.754 225.977 120.874 226.039C120.674 226.445 120.313 226.851 119.953 227.195C118.23 228.819 116.548 230.474 114.706 232.036C114.585 232.161 114.465 232.254 114.385 232.379C113.584 232.817 112.903 233.316 112.342 233.941C110.54 235.221 108.497 236.283 106.975 237.814C105.974 238.813 106.214 239.563 107.816 239.813C110.299 240.187 112.663 239.875 114.706 238.657C116.388 237.689 118.19 237.22 120.273 237.189C122.196 237.158 123.838 236.627 125.32 235.627C126.602 234.753 128.364 234.347 129.486 233.285C130.928 231.942 132.45 230.63 133.011 228.912C133.251 228.163 133.932 227.694 134.493 227.132C135.134 226.508 136.576 226.32 137.417 225.945C138.658 225.352 138.899 224.321 139.099 223.291C139.339 221.823 140.341 220.854 141.582 219.917C142.424 219.293 143.265 219.262 144.026 220.011C145.948 221.979 148.672 223.009 151.396 224.071C152.998 224.696 154.52 225.446 155.682 226.695C156.924 228.007 158.045 229.381 159.207 230.755C160.008 231.723 160.569 233.347 161.77 234.003C163.613 235.003 164.814 235.846 166.016 237.345C166.617 238.126 167.338 238.844 168.499 239.656C168.179 236.877 167.498 234.503 164.814 232.848C163.733 232.161 163.453 231.255 163.172 230.131C166.136 230.911 168.499 232.161 170.702 233.629C171.864 234.409 173.026 235.346 174.348 236.002C174.628 236.939 176.11 236.877 176.711 237.595C176.43 237.283 176.39 236.627 176.19 236.252C175.83 235.877 175.669 235.534 175.509 235.253Z" fill="#28262C"/>
<path d="M73.5083 77.5H87.3083L85.9583 122.575C85.8583 126.475 85.3333 129.525 84.3833 131.725C83.4833 133.875 82.3333 135.375 80.9333 136.225C79.5833 137.075 78.1583 137.5 76.6583 137.5C74.9083 137.5 72.8333 136.95 70.4333 135.85C68.0833 134.7 65.7333 133.2 63.3833 131.35C61.0833 129.5 59.0833 127.5 57.3833 125.35L57.7583 124.6C59.8083 125.55 61.8833 126.325 63.9833 126.925C66.0833 127.525 68.0083 127.975 69.7583 128.275C71.5583 128.525 72.9083 128.65 73.8083 128.65C74.6583 128.65 75.3083 128.3 75.7583 127.6C76.2083 126.9 76.4333 125.475 76.4333 123.325C76.4333 122.925 76.4333 122.5 76.4333 122.05C76.4333 121.6 76.4083 121.125 76.3583 120.625L73.5083 77.5ZM105.357 136.75L102.582 77.5H116.232L116.082 83.2L143.082 76.75V88.9L116.007 86.275L115.557 105.25L139.257 99.7V111.625L115.482 108.25L115.032 126.325L144.582 129.475V130.225L105.357 136.75ZM204.016 136L201.841 92.125L185.116 130.3H184.591L167.791 92.125L160.966 137.05H159.841L155.716 77.5H169.516L187.741 107.8L201.691 77.5H213.916L212.791 136H204.016ZM276.781 136L274.606 92.125L257.881 130.3H257.356L240.556 92.125L233.731 137.05H232.606L228.481 77.5L242.281 77.5L260.506 107.8L274.456 77.5H286.681L285.556 136H276.781ZM342.12 136.825L333.27 117.925L303.57 123.1L295.77 136.825H294.645L315.12 77.575L326.97 75.775L350.97 135.85L342.12 136.825ZM321.045 91.825L309.42 112.6L332.37 116.125L321.045 91.825Z" fill="#28262C"/>
<path d="M409 248.388C409 253.312 405.453 257.52 400.6 258.353C392.2 259.76 375.4 262.644 358.88 263.605C342.22 264.566 325.98 263.674 309.32 261.992C292.8 260.344 276 257.941 259.2 257.254C242.4 256.568 225.6 257.598 208.8 258.73C192 259.898 175.2 261.133 158.68 262.301C142.02 263.434 125.78 264.463 109.12 263.365C92.6 262.301 75.8 259.074 67.4 257.495C62.5309 256.559 59 252.297 59 247.339V245.4C59 240.761 62.7608 237 67.4 237C75.8 237 92.6 237 109.12 237C125.78 237 142.02 237 158.68 237C175.2 237 192 237 208.8 237C225.6 237 242.4 237 259.2 237C276 237 292.8 237 309.32 237C325.98 237 342.22 237 358.88 237C375.4 237 392.2 237 400.6 237C405.239 237 409 240.761 409 245.4V248.388Z" fill="#F8A87D"/>
<path d="M386 225.098L376.353 225.047V232.89H371.753V225.098H364.348L367.716 228.407L353.735 228.33V237H347.063V228.407H333.22L336.248 225.785L329.162 225.746V232.191H324.562V225.797H315L321.109 220.507H318.017L322.713 215.916L320.142 215.807L323.51 212.389L321.831 212.338L324.742 209.773H323.34L326.878 206.194L330.596 209.773H329.353L331.828 212.338L330.15 212.389L333.603 215.858L331.393 215.909L335.557 220.289L333.348 220.398L337.629 224.605L342.091 220.744H337.608L344.407 214.088L340.689 213.934L345.565 208.977L343.132 208.901L347.191 205.188L345.31 205.277L350.399 200L355.785 205.188H353.99L357.581 208.901L355.148 208.977L360.152 214.011L356.943 214.088L362.967 220.437L359.759 220.59L363.339 224.111L368.3 219.815H365.198L369.883 215.223L367.312 215.114L370.68 211.696L369.002 211.645L371.796 209.125H370.733L374.048 205.502L377.766 209.08H376.534L379.009 211.645L377.331 211.696L380.784 215.166L378.574 215.217L382.738 219.597L380.529 219.706L386 225.098Z" fill="#28262C"/>
<path d="M154.029 275C147.327 275 139.305 270.231 145.8 268.581C153.174 266.742 170.437 265.285 185.689 264.348C201.108 263.412 214.516 262.961 217.701 261.469C220.885 259.942 214.014 257.34 215.857 255.675C217.533 254.044 228.26 253.35 235.634 252.517C243.009 251.65 247.031 250.644 247.869 248.007C248.875 245.335 246.528 241.103 254.908 240.86C263.456 240.617 282.563 244.399 291.445 243.427C300.328 242.49 298.988 236.835 304.854 235.378C310.72 233.955 323.793 236.731 334.351 236.523C334.637 236.518 334.92 236.511 335.202 236.502C348.051 236.09 361 243.902 361 256.757C361 266.832 352.832 275 342.757 275H154.029Z" fill="#77BFF7"/>
</svg>
