<?xml version="1.0" standalone="no"?>
<!DOCTYPE svg PUBLIC "-//W3C//DTD SVG 20010904//EN"
 "http://www.w3.org/TR/2001/REC-SVG-20010904/DTD/svg10.dtd">
<svg version="1.0" xmlns="http://www.w3.org/2000/svg"
 width="343.000000pt" height="343.000000pt" viewBox="0 0 343.000000 343.000000"
 preserveAspectRatio="xMidYMid meet">

<g transform="translate(0.000000,343.000000) scale(0.100000,-0.100000)"
fill="#ffffff" stroke="none">
<path d="M1487 3145 c-38 -19 -73 -32 -78 -29 -6 3 -43 6 -83 6 -102 -1 -148
-25 -240 -123 -58 -63 -79 -79 -102 -79 -44 0 -150 -27 -192 -49 -52 -27 -97
-77 -127 -142 -19 -43 -33 -60 -58 -70 -17 -7 -53 -33 -79 -57 -58 -54 -86
-123 -95 -230 l-6 -77 -67 -70 c-107 -111 -130 -174 -110 -293 11 -66 10 -72
-12 -113 -19 -36 -23 -60 -23 -129 0 -83 1 -87 48 -174 l49 -89 -12 -79 c-23
-148 1 -232 91 -318 34 -33 49 -55 49 -73 0 -50 39 -132 82 -174 25 -25 79
-59 130 -83 84 -39 87 -42 113 -97 62 -136 130 -193 256 -215 54 -9 71 -17
110 -54 26 -23 64 -50 84 -58 48 -20 147 -20 236 0 l70 16 86 -43 c72 -37 96
-44 157 -47 65 -4 77 -1 136 30 64 33 69 34 156 30 119 -6 159 13 257 118 60
65 79 79 112 85 191 31 260 75 315 201 13 29 28 45 51 54 19 8 55 34 81 58 58
54 84 119 94 229 l7 78 67 70 c107 111 130 174 110 293 -11 66 -10 72 12 113
19 36 23 60 23 129 0 83 -1 88 -48 175 l-49 90 13 78 c22 147 -2 230 -92 318
-33 32 -49 56 -49 73 0 49 -39 131 -82 173 -26 25 -79 59 -131 83 l-87 41 -36
70 c-64 127 -139 187 -259 204 -40 6 -59 16 -96 50 -26 24 -64 51 -85 60 -50
21 -149 21 -236 1 l-67 -16 -88 43 c-75 36 -99 42 -163 45 -69 3 -80 0 -143
-33z m290 -20 c74 -35 77 -38 53 -47 -44 -19 -208 -15 -293 6 -43 11 -76 24
-74 30 2 6 28 21 58 34 78 33 154 26 256 -23z m-352 -28 c17 -4 68 -15 115
-26 94 -23 202 -27 280 -10 48 10 55 9 138 -27 83 -36 93 -38 219 -42 l132 -4
75 -88 c80 -94 136 -139 216 -172 43 -18 55 -29 81 -78 44 -82 81 -123 178
-196 47 -36 89 -73 93 -82 4 -9 7 -39 7 -67 2 -103 20 -179 66 -270 l45 -91
-11 -59 c-15 -80 -6 -160 31 -278 l31 -98 -56 -88 c-63 -100 -90 -169 -100
-261 -7 -62 -10 -68 -70 -131 -63 -68 -85 -112 -131 -261 l-17 -57 -91 -36
c-116 -46 -175 -84 -234 -150 -41 -46 -53 -53 -97 -59 -108 -15 -165 -41 -289
-130 l-68 -49 -113 26 c-129 31 -174 33 -264 12 l-65 -16 -72 36 c-76 38 -171
55 -305 55 l-65 0 -71 84 c-77 90 -134 135 -214 168 -43 18 -54 29 -76 72 -45
89 -83 133 -177 202 -50 37 -93 69 -95 71 -2 1 -8 53 -13 114 -9 121 -30 192
-78 270 -30 49 -30 51 -19 116 15 85 7 154 -31 276 l-31 98 46 74 c67 109 93
172 106 260 11 77 14 83 66 138 62 68 90 119 129 239 l28 87 90 37 c116 46
175 83 234 150 46 51 51 54 125 68 43 8 100 26 128 40 58 30 182 116 175 123
-2 3 -41 -21 -85 -52 -44 -31 -104 -65 -133 -75 -62 -21 -138 -35 -138 -25 0
27 134 145 185 163 29 11 129 10 190 -1z m736 2 c36 -13 129 -78 129 -91 0
-11 -133 -10 -207 2 -62 10 -188 58 -179 68 3 3 29 10 58 18 68 16 155 17 199
3z m307 -148 c21 -11 55 -38 75 -60 35 -39 104 -161 91 -161 -4 0 -36 14 -71
32 -47 23 -84 52 -135 107 -38 42 -74 85 -80 95 -10 18 -7 19 36 13 25 -4 63
-15 84 -26z m-1468 -49 c0 -11 -99 -105 -132 -125 -26 -16 -191 -87 -203 -87
-3 0 6 21 19 48 45 89 109 134 225 157 82 16 91 17 91 7z m1760 -240 c46 -17
123 -79 144 -116 25 -42 51 -124 43 -133 -9 -8 -145 96 -184 141 -21 24 -51
67 -67 95 l-28 52 39 -16 c21 -9 45 -19 53 -23z m-2150 -84 c-30 -99 -72 -176
-126 -229 l-46 -44 7 60 c16 139 48 205 127 258 29 19 55 34 57 32 2 -2 -7
-37 -19 -77z m2455 -320 c30 -55 37 -134 21 -231 -9 -60 -21 -53 -64 40 -30
65 -52 182 -52 272 l0 35 34 -33 c19 -18 46 -55 61 -83z m-2649 -59 c-7 -71
-28 -124 -94 -232 -53 -89 -60 -86 -61 26 -1 53 4 78 23 115 22 44 116 152
132 152 4 0 4 -27 0 -61z m2726 -371 c26 -51 32 -75 33 -128 0 -61 -27 -160
-43 -160 -4 0 -20 44 -36 98 -30 99 -37 179 -22 256 7 37 8 38 22 18 8 -12 29
-50 46 -84z m-2837 -88 c30 -99 38 -215 17 -270 -8 -22 -12 -18 -52 62 -54
109 -60 156 -30 248 13 39 26 67 30 63 4 -4 20 -51 35 -103z m2834 -353 c1
-85 -25 -140 -103 -217 l-56 -54 0 40 c0 66 28 143 88 243 63 106 70 105 71
-12z m-2781 -29 c17 -29 37 -78 46 -108 19 -71 32 -230 18 -230 -15 0 -69 65
-93 112 -14 27 -21 62 -22 102 -2 58 11 176 18 176 2 0 17 -24 33 -52z m2597
-345 c-16 -139 -49 -204 -129 -257 -30 -20 -57 -36 -60 -36 -10 0 65 206 89
241 33 51 85 109 97 109 6 0 7 -23 3 -57z m-2303 -198 c17 -22 41 -61 54 -87
l24 -48 -27 11 c-50 19 -123 58 -158 85 -38 28 -80 107 -91 168 l-7 38 88 -63
c48 -35 101 -82 117 -104z m2054 -189 c-47 -81 -128 -126 -251 -141 l-60 -7
45 47 c25 26 62 58 82 71 53 34 202 94 206 83 2 -5 -8 -29 -22 -53z m-1869 -8
c47 -23 84 -52 135 -107 88 -96 97 -111 65 -111 -55 0 -129 32 -170 73 -35 35
-107 150 -107 171 0 10 11 7 77 -26z m1514 -175 c-18 -34 -122 -131 -159 -149
-42 -20 -145 -30 -180 -17 -21 8 -19 12 41 56 88 64 150 95 227 111 85 19 82
19 71 -1z m-960 -87 c37 -13 77 -30 89 -39 21 -15 19 -16 -55 -32 -128 -29
-205 -13 -290 60 l-40 35 115 0 c95 0 127 -5 181 -24z m424 -47 c28 -5 70 -16
95 -23 l45 -13 -55 -29 c-45 -23 -68 -28 -125 -29 -61 0 -80 5 -149 38 -48 23
-76 41 -70 47 12 12 130 27 174 22 19 -2 58 -8 85 -13z"/>
<path d="M1267 2465 c-48 -16 -62 -28 -81 -69 -14 -30 -16 -118 -16 -775 l0
-741 50 0 50 0 0 745 c0 742 0 744 21 755 50 27 49 45 49 -756 l0 -744 50 0
50 0 0 743 c0 739 1 767 31 767 4 0 15 -7 23 -16 14 -14 16 -96 16 -755 l0
-739 45 0 45 0 0 751 c0 737 0 752 -20 784 -11 18 -28 36 -38 40 -53 22 -76
24 -118 9 -24 -8 -49 -12 -55 -9 -28 18 -68 22 -102 10z"/>
<path d="M2096 2465 c-20 -7 -44 -19 -53 -26 -42 -36 -43 -45 -43 -770 0 -683
0 -692 21 -729 26 -45 65 -70 114 -70 49 0 91 24 112 63 17 30 18 85 21 722 2
476 0 702 -8 727 -12 41 -59 83 -102 90 -14 3 -43 -1 -62 -7z m62 -87 c14 -14
17 -1384 3 -1406 -4 -8 -19 -12 -32 -10 l-24 3 -3 699 c-1 508 1 703 9 712 14
17 31 18 47 2z"/>
<path d="M1670 1600 l0 -40 130 0 130 0 0 40 0 40 -130 0 -130 0 0 -40z"/>
</g>
</svg>
